<svg width="306" height="158" viewBox="0 0 306 158" fill="none" xmlns="http://www.w3.org/2000/svg">
<path d="M11.2148 74.1758H10.6611L7.59375 65.2988L4.72852 74.1758H4.1748L0.114258 61.124H1.94238L4.52637 70.1152L7.35644 61.124H7.97168L10.7666 70.0977L13.3945 61.124H15.2227L11.2148 74.1758ZM23.6338 69.4561H16.8486C16.8486 70.5576 17.1504 71.4043 17.7539 71.9961C18.2871 72.5117 18.9727 72.7695 19.8105 72.7695C20.7656 72.7695 21.5625 72.4912 22.2012 71.9346L22.9043 73.1387C22.6465 73.3965 22.251 73.6191 21.7178 73.8066C21.0498 74.0527 20.3057 74.1758 19.4854 74.1758C18.3018 74.1758 17.2969 73.7744 16.4707 72.9717C15.5508 72.0869 15.0908 70.8975 15.0908 69.4033C15.0908 67.8506 15.5625 66.6055 16.5059 65.668C17.3496 64.8301 18.3486 64.4111 19.5029 64.4111C20.8447 64.4111 21.8965 64.7891 22.6582 65.5449C23.3965 66.2715 23.7656 67.2354 23.7656 68.4365C23.7656 68.8057 23.7217 69.1455 23.6338 69.4561ZM19.582 65.8174C18.8379 65.8174 18.2139 66.0576 17.71 66.5381C17.2295 66.9951 16.957 67.5635 16.8926 68.2432H22.1045C22.1045 67.5693 21.8936 67.0068 21.4717 66.5557C21.0088 66.0635 20.3789 65.8174 19.582 65.8174ZM38.0654 65.3516L37.2393 66.5293C37.0693 66.3594 36.7676 66.1982 36.334 66.0459C35.9062 65.8936 35.4844 65.8174 35.0684 65.8174C34.1602 65.8174 33.4395 66.1367 32.9062 66.7754C32.373 67.4082 32.1064 68.2783 32.1064 69.3857C32.1064 70.4873 32.3789 71.3281 32.9238 71.9082C33.4687 72.4824 34.2246 72.7695 35.1914 72.7695C35.9414 72.7695 36.6973 72.4795 37.459 71.8994L38.1182 73.3057C37.2217 73.8857 36.1113 74.1758 34.7871 74.1758C33.5039 74.1758 32.4434 73.7451 31.6055 72.8838C30.7676 72.0225 30.3486 70.8564 30.3486 69.3857C30.3486 67.8857 30.7822 66.6816 31.6494 65.7734C32.5225 64.8652 33.7148 64.4111 35.2266 64.4111C35.7129 64.4111 36.2402 64.5137 36.8086 64.7187C37.377 64.9238 37.7959 65.1348 38.0654 65.3516ZM45.1934 72.9189C44.5254 73.7568 43.5029 74.1758 42.126 74.1758C41.3877 74.1758 40.7461 73.9092 40.2012 73.376C39.6621 72.8369 39.3926 72.1689 39.3926 71.3721C39.3926 70.417 39.8086 69.6113 40.6406 68.9551C41.4785 68.293 42.5449 67.9619 43.8398 67.9619C44.1914 67.9619 44.5898 68.0381 45.0352 68.1904C45.0352 66.667 44.3555 65.9053 42.9961 65.9053C41.9531 65.9053 41.1504 66.1865 40.5879 66.749L39.8848 65.3516C40.2012 65.0937 40.6377 64.874 41.1943 64.6924C41.7568 64.5049 42.293 64.4111 42.8027 64.4111C44.168 64.4111 45.1582 64.7217 45.7734 65.3428C46.3945 65.9639 46.7051 66.9512 46.7051 68.3047V71.6797C46.7051 72.5059 46.9512 73.0566 47.4434 73.332V74.167C46.7637 74.167 46.2539 74.0703 45.9141 73.877C45.5801 73.6836 45.3398 73.3643 45.1934 72.9189ZM45.0352 69.377C44.5078 69.2598 44.1387 69.2012 43.9277 69.2012C43.084 69.2012 42.3955 69.418 41.8623 69.8516C41.3291 70.2852 41.0625 70.7979 41.0625 71.3896C41.0625 72.3682 41.6396 72.8574 42.7939 72.8574C43.6377 72.8574 44.3848 72.4561 45.0352 71.6533V69.377ZM54.4482 66.1953C54.085 65.9434 53.7187 65.8174 53.3496 65.8174C52.7578 65.8174 52.2393 66.0898 51.7939 66.6348C51.3545 67.1797 51.1348 67.8359 51.1348 68.6035V74H49.4648V64.5869H51.1348V66.0898C51.7441 64.9707 52.6494 64.4111 53.8506 64.4111C54.1494 64.4111 54.5801 64.4639 55.1426 64.5693L54.4482 66.1953ZM64.2568 69.4561H57.4717C57.4717 70.5576 57.7734 71.4043 58.3769 71.9961C58.9102 72.5117 59.5957 72.7695 60.4336 72.7695C61.3887 72.7695 62.1855 72.4912 62.8242 71.9346L63.5273 73.1387C63.2695 73.3965 62.874 73.6191 62.3408 73.8066C61.6728 74.0527 60.9287 74.1758 60.1084 74.1758C58.9248 74.1758 57.9199 73.7744 57.0937 72.9717C56.1738 72.0869 55.7139 70.8975 55.7139 69.4033C55.7139 67.8506 56.1855 66.6055 57.1289 65.668C57.9727 64.8301 58.9717 64.4111 60.126 64.4111C61.4678 64.4111 62.5195 64.7891 63.2812 65.5449C64.0195 66.2715 64.3887 67.2354 64.3887 68.4365C64.3887 68.8057 64.3447 69.1455 64.2568 69.4561ZM60.2051 65.8174C59.4609 65.8174 58.8369 66.0576 58.333 66.5381C57.8525 66.9951 57.5801 67.5635 57.5156 68.2432H62.7275C62.7275 67.5693 62.5166 67.0068 62.0947 66.5557C61.6318 66.0635 61.0019 65.8174 60.2051 65.8174ZM76.9043 72.9189C76.2363 73.7568 75.2139 74.1758 73.8369 74.1758C73.0986 74.1758 72.457 73.9092 71.9121 73.376C71.373 72.8369 71.1035 72.1689 71.1035 71.3721C71.1035 70.417 71.5195 69.6113 72.3516 68.9551C73.1894 68.293 74.2559 67.9619 75.5508 67.9619C75.9023 67.9619 76.3008 68.0381 76.7461 68.1904C76.7461 66.667 76.0664 65.9053 74.707 65.9053C73.6641 65.9053 72.8613 66.1865 72.2988 66.749L71.5957 65.3516C71.9121 65.0937 72.3486 64.874 72.9053 64.6924C73.4678 64.5049 74.0039 64.4111 74.5137 64.4111C75.8789 64.4111 76.8691 64.7217 77.4844 65.3428C78.1055 65.9639 78.416 66.9512 78.416 68.3047V71.6797C78.416 72.5059 78.6621 73.0566 79.1543 73.332V74.167C78.4746 74.167 77.9648 74.0703 77.625 73.877C77.291 73.6836 77.0508 73.3643 76.9043 72.9189ZM76.7461 69.377C76.2187 69.2598 75.8496 69.2012 75.6387 69.2012C74.7949 69.2012 74.1064 69.418 73.5732 69.8516C73.04 70.2852 72.7734 70.7979 72.7734 71.3896C72.7734 72.3682 73.3506 72.8574 74.5049 72.8574C75.3486 72.8574 76.0957 72.4561 76.7461 71.6533V69.377ZM82.4678 73.3232L81.8789 74.1758H81.0439V60.7285H82.7139V65.2812C82.8721 65.0645 83.168 64.8652 83.6016 64.6836C84.041 64.502 84.4717 64.4111 84.8935 64.4111C86.1826 64.4111 87.2256 64.8564 88.0225 65.7471C88.8252 66.6377 89.2266 67.7627 89.2266 69.1221C89.2266 70.6924 88.8252 71.9287 88.0225 72.8311C87.2197 73.7275 86.1328 74.1758 84.7617 74.1758C84.3164 74.1758 83.8769 74.0937 83.4434 73.9297C83.0156 73.7598 82.6904 73.5576 82.4678 73.3232ZM82.7139 66.5557V71.9873C82.7139 72.0811 82.9219 72.2363 83.3379 72.4531C83.7539 72.6641 84.0703 72.7695 84.2871 72.7695C85.4238 72.7695 86.2383 72.4971 86.7305 71.9521C87.2227 71.4072 87.4687 70.4932 87.4687 69.21C87.4687 68.1436 87.1816 67.3115 86.6074 66.7139C86.0332 66.1162 85.2598 65.8174 84.2871 65.8174C84.082 65.8174 83.7949 65.9053 83.4258 66.0811C83.0625 66.2568 82.8252 66.415 82.7139 66.5557ZM90.4658 69.2715C90.4658 67.8184 90.8555 66.6465 91.6348 65.7559C92.4199 64.8594 93.4512 64.4111 94.7285 64.4111C96.0762 64.4111 97.1221 64.8418 97.8662 65.7031C98.6103 66.5586 98.9824 67.748 98.9824 69.2715C98.9824 70.7891 98.6016 71.9873 97.8398 72.8662C97.0781 73.7393 96.041 74.1758 94.7285 74.1758C93.3867 74.1758 92.3408 73.7334 91.5908 72.8486C90.8408 71.9639 90.4658 70.7715 90.4658 69.2715ZM92.2236 69.2715C92.2236 71.6328 93.0586 72.8135 94.7285 72.8135C95.5078 72.8135 96.1172 72.4971 96.5566 71.8643C97.0019 71.2314 97.2246 70.3672 97.2246 69.2715C97.2246 66.9395 96.3926 65.7734 94.7285 65.7734C93.9668 65.7734 93.3574 66.084 92.9004 66.7051C92.4492 67.3262 92.2236 68.1816 92.2236 69.2715ZM102.331 64.5869V70.5898C102.331 72.043 102.961 72.7695 104.221 72.7695C104.771 72.7695 105.275 72.6113 105.732 72.2949C106.189 71.9785 106.491 71.6123 106.638 71.1963V64.5869H108.308V74H106.638V72.6992C106.45 73.0684 106.072 73.4082 105.504 73.7187C104.941 74.0234 104.391 74.1758 103.852 74.1758C102.82 74.1758 102.029 73.8799 101.479 73.2881C100.934 72.6963 100.661 71.8555 100.661 70.7656V64.5869H102.331ZM111.19 65.9053H110.101V64.5869H111.19V62.6182L112.86 61.9766V64.5869H115.444V65.9053H112.86V70.5811C112.86 71.3721 112.992 71.9346 113.256 72.2686C113.525 72.6025 113.956 72.7695 114.548 72.7695C114.976 72.7695 115.418 72.6611 115.875 72.4443L116.121 73.9121C115.43 74.0879 114.671 74.1758 113.845 74.1758C113.101 74.1758 112.471 73.9004 111.955 73.3496C111.445 72.793 111.19 72.0928 111.19 71.249V65.9053ZM123.759 65.9053H122.669V64.5869H123.759V62.6182L125.429 61.9766V64.5869H128.013V65.9053H125.429V70.5811C125.429 71.3721 125.561 71.9346 125.824 72.2686C126.094 72.6025 126.524 72.7695 127.116 72.7695C127.544 72.7695 127.986 72.6611 128.443 72.4443L128.689 73.9121C127.998 74.0879 127.239 74.1758 126.413 74.1758C125.669 74.1758 125.039 73.9004 124.523 73.3496C124.014 72.793 123.759 72.0928 123.759 71.249V65.9053ZM136.099 74V68.085C136.099 67.3818 135.926 66.8281 135.58 66.4238C135.234 66.0195 134.748 65.8174 134.121 65.8174C133.717 65.8174 133.31 65.9375 132.899 66.1777C132.495 66.4121 132.185 66.6875 131.968 67.0039V74H130.298V60.7285H131.968V65.624C132.19 65.2783 132.548 64.9912 133.04 64.7627C133.538 64.5283 134.051 64.4111 134.578 64.4111C135.574 64.4111 136.354 64.7393 136.916 65.3955C137.484 66.0518 137.769 66.9482 137.769 68.085V74H136.099ZM148.069 69.4561H141.284C141.284 70.5576 141.586 71.4043 142.189 71.9961C142.723 72.5117 143.408 72.7695 144.246 72.7695C145.201 72.7695 145.998 72.4912 146.637 71.9346L147.34 73.1387C147.082 73.3965 146.687 73.6191 146.153 73.8066C145.485 74.0527 144.741 74.1758 143.921 74.1758C142.737 74.1758 141.732 73.7744 140.906 72.9717C139.986 72.0869 139.526 70.8975 139.526 69.4033C139.526 67.8506 139.998 66.6055 140.941 65.668C141.785 64.8301 142.784 64.4111 143.938 64.4111C145.28 64.4111 146.332 64.7891 147.094 65.5449C147.832 66.2715 148.201 67.2354 148.201 68.4365C148.201 68.8057 148.157 69.1455 148.069 69.4561ZM144.018 65.8174C143.273 65.8174 142.649 66.0576 142.145 66.5381C141.665 66.9951 141.393 67.5635 141.328 68.2432H146.54C146.54 67.5693 146.329 67.0068 145.907 66.5557C145.444 66.0635 144.814 65.8174 144.018 65.8174ZM157.069 73.4814V77.6914H155.399V64.5869H157.069V65.3604C157.702 64.7275 158.467 64.4111 159.363 64.4111C160.699 64.4111 161.739 64.8271 162.483 65.6592C163.228 66.4912 163.6 67.71 163.6 69.3154C163.6 70.7451 163.225 71.9141 162.475 72.8223C161.725 73.7246 160.641 74.1758 159.223 74.1758C158.824 74.1758 158.396 74.1055 157.939 73.9648C157.488 73.8242 157.198 73.6631 157.069 73.4814ZM157.069 66.6172V72.1016C157.175 72.2598 157.397 72.4121 157.737 72.5586C158.077 72.6992 158.408 72.7695 158.73 72.7695C160.805 72.7695 161.842 71.5977 161.842 69.2539C161.842 68.0645 161.596 67.1943 161.104 66.6436C160.611 66.0928 159.823 65.8174 158.739 65.8174C158.505 65.8174 158.218 65.8994 157.878 66.0635C157.538 66.2275 157.269 66.4121 157.069 66.6172ZM170.552 66.1953C170.188 65.9434 169.822 65.8174 169.453 65.8174C168.861 65.8174 168.343 66.0898 167.897 66.6348C167.458 67.1797 167.238 67.8359 167.238 68.6035V74H165.568V64.5869H167.238V66.0898C167.848 64.9707 168.753 64.4111 169.954 64.4111C170.253 64.4111 170.684 64.4639 171.246 64.5693L170.552 66.1953ZM174.155 61.0273C174.442 61.0273 174.686 61.1299 174.885 61.335C175.09 61.5342 175.192 61.7744 175.192 62.0557C175.192 62.3428 175.09 62.5889 174.885 62.7939C174.686 62.9932 174.442 63.0928 174.155 63.0928C173.874 63.0928 173.631 62.9932 173.426 62.7939C173.227 62.5889 173.127 62.3428 173.127 62.0557C173.127 61.7686 173.227 61.5254 173.426 61.3262C173.625 61.127 173.868 61.0273 174.155 61.0273ZM173.241 74V65.9932H171.949V64.5869H174.911V74H173.241ZM180.958 74.1758H180.519L176.484 64.5605H178.312L180.8 71.1523L183.34 64.5605H185.089L180.958 74.1758ZM191.707 72.9189C191.039 73.7568 190.017 74.1758 188.64 74.1758C187.901 74.1758 187.26 73.9092 186.715 73.376C186.176 72.8369 185.906 72.1689 185.906 71.3721C185.906 70.417 186.322 69.6113 187.154 68.9551C187.992 68.293 189.059 67.9619 190.354 67.9619C190.705 67.9619 191.104 68.0381 191.549 68.1904C191.549 66.667 190.869 65.9053 189.51 65.9053C188.467 65.9053 187.664 66.1865 187.102 66.749L186.398 65.3516C186.715 65.0937 187.151 64.874 187.708 64.6924C188.27 64.5049 188.807 64.4111 189.316 64.4111C190.682 64.4111 191.672 64.7217 192.287 65.3428C192.908 65.9639 193.219 66.9512 193.219 68.3047V71.6797C193.219 72.5059 193.465 73.0566 193.957 73.332V74.167C193.277 74.167 192.768 74.0703 192.428 73.877C192.094 73.6836 191.854 73.3643 191.707 72.9189ZM191.549 69.377C191.021 69.2598 190.652 69.2012 190.441 69.2012C189.598 69.2012 188.909 69.418 188.376 69.8516C187.843 70.2852 187.576 70.7979 187.576 71.3896C187.576 72.3682 188.153 72.8574 189.308 72.8574C190.151 72.8574 190.898 72.4561 191.549 71.6533V69.377ZM202.948 65.3516L202.122 66.5293C201.952 66.3594 201.65 66.1982 201.217 66.0459C200.789 65.8936 200.367 65.8174 199.951 65.8174C199.043 65.8174 198.322 66.1367 197.789 66.7754C197.256 67.4082 196.989 68.2783 196.989 69.3857C196.989 70.4873 197.262 71.3281 197.807 71.9082C198.352 72.4824 199.107 72.7695 200.074 72.7695C200.824 72.7695 201.58 72.4795 202.342 71.8994L203.001 73.3057C202.104 73.8857 200.994 74.1758 199.67 74.1758C198.387 74.1758 197.326 73.7451 196.488 72.8838C195.65 72.0225 195.231 70.8564 195.231 69.3857C195.231 67.8857 195.665 66.6816 196.532 65.7734C197.405 64.8652 198.598 64.4111 200.109 64.4111C200.596 64.4111 201.123 64.5137 201.691 64.7187C202.26 64.9238 202.679 65.1348 202.948 65.3516ZM208.354 75.5996C208.137 76.1973 207.68 76.6953 206.982 77.0937C206.291 77.4922 205.518 77.6914 204.662 77.6914V76.1973C205.359 76.1973 205.957 76.0332 206.455 75.7051C206.953 75.3828 207.202 74.9873 207.202 74.5186C207.202 74.0029 207.111 73.4961 206.93 72.998C206.748 72.4941 206.514 71.873 206.227 71.1348L203.678 64.5869H205.383L208.151 71.8643L210.639 64.5869H212.344L208.354 75.5996ZM224.385 72.9189C223.717 73.7568 222.694 74.1758 221.317 74.1758C220.579 74.1758 219.937 73.9092 219.393 73.376C218.854 72.8369 218.584 72.1689 218.584 71.3721C218.584 70.417 219 69.6113 219.832 68.9551C220.67 68.293 221.736 67.9619 223.031 67.9619C223.383 67.9619 223.781 68.0381 224.227 68.1904C224.227 66.667 223.547 65.9053 222.187 65.9053C221.145 65.9053 220.342 66.1865 219.779 66.749L219.076 65.3516C219.393 65.0937 219.829 64.874 220.386 64.6924C220.948 64.5049 221.484 64.4111 221.994 64.4111C223.359 64.4111 224.35 64.7217 224.965 65.3428C225.586 65.9639 225.896 66.9512 225.896 68.3047V71.6797C225.896 72.5059 226.143 73.0566 226.635 73.332V74.167C225.955 74.167 225.445 74.0703 225.105 73.877C224.771 73.6836 224.531 73.3643 224.385 72.9189ZM224.227 69.377C223.699 69.2598 223.33 69.2012 223.119 69.2012C222.275 69.2012 221.587 69.418 221.054 69.8516C220.52 70.2852 220.254 70.7979 220.254 71.3896C220.254 72.3682 220.831 72.8574 221.985 72.8574C222.829 72.8574 223.576 72.4561 224.227 71.6533V69.377ZM234.316 74V68.5244C234.316 67.5225 234.164 66.8223 233.859 66.4238C233.561 66.0195 233.057 65.8174 232.348 65.8174C231.967 65.8174 231.568 65.9316 231.152 66.1602C230.736 66.3887 230.417 66.6699 230.194 67.0039V74H228.524V64.5869H229.667L230.194 65.7998C230.745 64.874 231.645 64.4111 232.893 64.4111C234.955 64.4111 235.986 65.665 235.986 68.1729V74H234.316ZM244.336 73.9912V73.2969C243.756 73.877 242.912 74.167 241.805 74.167C240.627 74.167 239.672 73.7451 238.939 72.9014C238.207 72.0576 237.841 70.9326 237.841 69.5264C237.841 68.1143 238.263 66.9102 239.106 65.9141C239.95 64.9121 240.955 64.4111 242.121 64.4111C243.094 64.4111 243.832 64.6396 244.336 65.0967V60.7285H246.006V73.9912H244.336ZM244.336 66.7666C243.914 66.1338 243.337 65.8174 242.604 65.8174C241.708 65.8174 240.981 66.1514 240.425 66.8193C239.874 67.4873 239.599 68.3369 239.599 69.3682C239.599 71.6357 240.63 72.7695 242.692 72.7695C242.956 72.7695 243.272 72.6875 243.642 72.5234C244.011 72.3535 244.242 72.1748 244.336 71.9873V66.7666ZM0.571289 94.4375L1.16016 92.8555C2.0918 93.4648 2.8418 93.7695 3.41016 93.7695C4.44141 93.7695 4.95703 93.3359 4.95703 92.4687C4.95703 91.8477 4.45898 91.3145 3.46289 90.8691C2.69531 90.5176 2.17676 90.251 1.90723 90.0693C1.64355 89.8877 1.41211 89.6826 1.21289 89.4541C1.01953 89.2197 0.873047 88.9736 0.773437 88.7158C0.679687 88.4521 0.632812 88.1709 0.632812 87.8721C0.632812 87.0986 0.914062 86.4951 1.47656 86.0615C2.03906 85.6279 2.77441 85.4111 3.68262 85.4111C4.36816 85.4111 5.23242 85.6279 6.27539 86.0615L5.80078 87.6084C5.13867 87.0811 4.47363 86.8174 3.80566 86.8174C3.40723 86.8174 3.07031 86.9111 2.79492 87.0986C2.52539 87.2861 2.39062 87.5234 2.39062 87.8105C2.39062 88.4141 2.7334 88.8711 3.41895 89.1816L4.61426 89.7266C5.34668 90.0605 5.87988 90.4414 6.21387 90.8691C6.54785 91.2969 6.71484 91.833 6.71484 92.4775C6.71484 93.3213 6.41894 93.9834 5.82715 94.4639C5.23535 94.9385 4.41504 95.1758 3.36621 95.1758C2.37598 95.1758 1.44434 94.9297 0.571289 94.4375ZM16.4092 90.4561H9.62402C9.62402 91.5576 9.92578 92.4043 10.5293 92.9961C11.0625 93.5117 11.748 93.7695 12.5859 93.7695C13.541 93.7695 14.3379 93.4912 14.9766 92.9346L15.6797 94.1387C15.4219 94.3965 15.0264 94.6191 14.4932 94.8066C13.8252 95.0527 13.0811 95.1758 12.2607 95.1758C11.0771 95.1758 10.0723 94.7744 9.24609 93.9717C8.32617 93.0869 7.86621 91.8975 7.86621 90.4033C7.86621 88.8506 8.33789 87.6055 9.28125 86.668C10.125 85.8301 11.124 85.4111 12.2783 85.4111C13.6201 85.4111 14.6719 85.7891 15.4336 86.5449C16.1719 87.2715 16.541 88.2353 16.541 89.4365C16.541 89.8057 16.4971 90.1455 16.4092 90.4561ZM12.3574 86.8174C11.6133 86.8174 10.9893 87.0576 10.4854 87.5381C10.0049 87.9951 9.73242 88.5635 9.66797 89.2432H14.8799C14.8799 88.5693 14.6689 88.0068 14.2471 87.5557C13.7842 87.0635 13.1543 86.8174 12.3574 86.8174ZM25.4092 86.3516L24.583 87.5293C24.4131 87.3594 24.1113 87.1982 23.6777 87.0459C23.25 86.8936 22.8281 86.8174 22.4121 86.8174C21.5039 86.8174 20.7832 87.1367 20.25 87.7754C19.7168 88.4082 19.4502 89.2783 19.4502 90.3857C19.4502 91.4873 19.7227 92.3281 20.2676 92.9082C20.8125 93.4824 21.5684 93.7695 22.5352 93.7695C23.2852 93.7695 24.041 93.4795 24.8027 92.8994L25.4619 94.3057C24.5654 94.8857 23.4551 95.1758 22.1309 95.1758C20.8477 95.1758 19.7871 94.7451 18.9492 93.8838C18.1113 93.0225 17.6924 91.8564 17.6924 90.3857C17.6924 88.8857 18.126 87.6816 18.9932 86.7734C19.8662 85.8652 21.0586 85.4111 22.5703 85.4111C23.0566 85.4111 23.584 85.5137 24.1523 85.7187C24.7207 85.9238 25.1396 86.1348 25.4092 86.3516ZM28.8018 85.5869V91.5898C28.8018 93.043 29.4316 93.7695 30.6914 93.7695C31.2422 93.7695 31.7461 93.6113 32.2031 93.2949C32.6602 92.9785 32.9619 92.6123 33.1084 92.1963V85.5869H34.7783V95H33.1084V93.6992C32.9209 94.0684 32.543 94.4082 31.9746 94.7187C31.4121 95.0234 30.8613 95.1758 30.3223 95.1758C29.291 95.1758 28.5 94.8799 27.9492 94.2881C27.4043 93.6963 27.1318 92.8555 27.1318 91.7656V85.5869H28.8018ZM42.1787 87.1953C41.8154 86.9434 41.4492 86.8174 41.0801 86.8174C40.4883 86.8174 39.9697 87.0898 39.5244 87.6348C39.085 88.1797 38.8652 88.8359 38.8652 89.6035V95H37.1953V85.5869H38.8652V87.0898C39.4746 85.9707 40.3799 85.4111 41.5811 85.4111C41.8799 85.4111 42.3105 85.4639 42.873 85.5693L42.1787 87.1953ZM45.7822 82.0273C46.0693 82.0273 46.3125 82.1299 46.5117 82.335C46.7168 82.5342 46.8193 82.7744 46.8193 83.0557C46.8193 83.3428 46.7168 83.5889 46.5117 83.7939C46.3125 83.9932 46.0693 84.0928 45.7822 84.0928C45.501 84.0928 45.2578 83.9932 45.0527 83.7939C44.8535 83.5889 44.7539 83.3428 44.7539 83.0557C44.7539 82.7686 44.8535 82.5254 45.0527 82.3262C45.252 82.127 45.4951 82.0273 45.7822 82.0273ZM44.8682 95V86.9932H43.5762V85.5869H46.5381V95H44.8682ZM49.79 86.9053H48.7002V85.5869H49.79V83.6182L51.46 82.9766V85.5869H54.0439V86.9053H51.46V91.5811C51.46 92.3721 51.5918 92.9346 51.8555 93.2686C52.125 93.6025 52.5557 93.7695 53.1475 93.7695C53.5752 93.7695 54.0176 93.6611 54.4746 93.4443L54.7207 94.9121C54.0293 95.0879 53.2705 95.1758 52.4443 95.1758C51.7002 95.1758 51.0703 94.9004 50.5547 94.3496C50.0449 93.793 49.79 93.0928 49.79 92.249V86.9053ZM59.9238 96.5996C59.707 97.1973 59.25 97.6953 58.5527 98.0937C57.8613 98.4922 57.0879 98.6914 56.2324 98.6914V97.1973C56.9297 97.1973 57.5273 97.0332 58.0254 96.7051C58.5234 96.3828 58.7725 95.9873 58.7725 95.5186C58.7725 95.0029 58.6816 94.4961 58.5 93.998C58.3184 93.4941 58.084 92.873 57.7969 92.1348L55.248 85.5869H56.9531L59.7217 92.8643L62.209 85.5869H63.9141L59.9238 96.5996ZM70.0225 90.2715C70.0225 88.8184 70.4121 87.6465 71.1914 86.7559C71.9766 85.8594 73.0078 85.4111 74.2852 85.4111C75.6328 85.4111 76.6787 85.8418 77.4228 86.7031C78.167 87.5586 78.5391 88.748 78.5391 90.2715C78.5391 91.7891 78.1582 92.9873 77.3965 93.8662C76.6348 94.7393 75.5977 95.1758 74.2852 95.1758C72.9434 95.1758 71.8975 94.7334 71.1475 93.8486C70.3975 92.9639 70.0225 91.7715 70.0225 90.2715ZM71.7803 90.2715C71.7803 92.6328 72.6152 93.8135 74.2852 93.8135C75.0644 93.8135 75.6738 93.4971 76.1133 92.8643C76.5586 92.2314 76.7812 91.3672 76.7812 90.2715C76.7812 87.9395 75.9492 86.7734 74.2852 86.7734C73.5234 86.7734 72.9141 87.084 72.457 87.7051C72.0059 88.3262 71.7803 89.1816 71.7803 90.2715ZM85.3945 83.2227C85.0547 83.1055 84.7383 83.0469 84.4453 83.0469C83.9355 83.0469 83.5137 83.2402 83.1797 83.627C82.8516 84.0137 82.6875 84.5029 82.6875 85.0947C82.6875 85.2529 82.7021 85.417 82.7314 85.5869H84.6475V86.9932H82.7314V95H81.0615V86.9932H79.6904V85.5869H81.0615C81.0615 84.3857 81.3574 83.4424 81.9492 82.7568C82.541 82.0713 83.3232 81.7285 84.2959 81.7285C84.7822 81.7285 85.3037 81.8164 85.8603 81.9922L85.3945 83.2227ZM91.7842 90.2715C91.7842 88.8184 92.1738 87.6465 92.9531 86.7559C93.7383 85.8594 94.7695 85.4111 96.0469 85.4111C97.3945 85.4111 98.4404 85.8418 99.1846 86.7031C99.9287 87.5586 100.301 88.748 100.301 90.2715C100.301 91.7891 99.9199 92.9873 99.1582 93.8662C98.3965 94.7393 97.3594 95.1758 96.0469 95.1758C94.7051 95.1758 93.6592 94.7334 92.9092 93.8486C92.1592 92.9639 91.7842 91.7715 91.7842 90.2715ZM93.542 90.2715C93.542 92.6328 94.3769 93.8135 96.0469 93.8135C96.8262 93.8135 97.4355 93.4971 97.875 92.8643C98.3203 92.2314 98.543 91.3672 98.543 90.2715C98.543 87.9395 97.7109 86.7734 96.0469 86.7734C95.2852 86.7734 94.6758 87.084 94.2187 87.7051C93.7676 88.3262 93.542 89.1816 93.542 90.2715ZM103.649 85.5869V91.5898C103.649 93.043 104.279 93.7695 105.539 93.7695C106.09 93.7695 106.594 93.6113 107.051 93.2949C107.508 92.9785 107.81 92.6123 107.956 92.1963V85.5869H109.626V95H107.956V93.6992C107.769 94.0684 107.391 94.4082 106.822 94.7187C106.26 95.0234 105.709 95.1758 105.17 95.1758C104.139 95.1758 103.348 94.8799 102.797 94.2881C102.252 93.6963 101.979 92.8555 101.979 91.7656V85.5869H103.649ZM117.026 87.1953C116.663 86.9434 116.297 86.8174 115.928 86.8174C115.336 86.8174 114.817 87.0898 114.372 87.6348C113.933 88.1797 113.713 88.8359 113.713 89.6035V95H112.043V85.5869H113.713V87.0898C114.322 85.9707 115.228 85.4111 116.429 85.4111C116.728 85.4111 117.158 85.4639 117.721 85.5693L117.026 87.1953ZM131.44 86.3516L130.614 87.5293C130.444 87.3594 130.143 87.1982 129.709 87.0459C129.281 86.8936 128.859 86.8174 128.443 86.8174C127.535 86.8174 126.814 87.1367 126.281 87.7754C125.748 88.4082 125.481 89.2783 125.481 90.3857C125.481 91.4873 125.754 92.3281 126.299 92.9082C126.844 93.4824 127.6 93.7695 128.566 93.7695C129.316 93.7695 130.072 93.4795 130.834 92.8994L131.493 94.3057C130.597 94.8857 129.486 95.1758 128.162 95.1758C126.879 95.1758 125.818 94.7451 124.98 93.8838C124.143 93.0225 123.724 91.8564 123.724 90.3857C123.724 88.8857 124.157 87.6816 125.024 86.7734C125.897 85.8652 127.09 85.4111 128.602 85.4111C129.088 85.4111 129.615 85.5137 130.184 85.7187C130.752 85.9238 131.171 86.1348 131.44 86.3516ZM134.833 85.5869V91.5898C134.833 93.043 135.463 93.7695 136.723 93.7695C137.273 93.7695 137.777 93.6113 138.234 93.2949C138.691 92.9785 138.993 92.6123 139.14 92.1963V85.5869H140.81V95H139.14V93.6992C138.952 94.0684 138.574 94.4082 138.006 94.7187C137.443 95.0234 136.893 95.1758 136.354 95.1758C135.322 95.1758 134.531 94.8799 133.98 94.2881C133.436 93.6963 133.163 92.8555 133.163 91.7656V85.5869H134.833ZM142.479 94.4375L143.068 92.8555C144 93.4648 144.75 93.7695 145.318 93.7695C146.35 93.7695 146.865 93.3359 146.865 92.4687C146.865 91.8477 146.367 91.3145 145.371 90.8691C144.604 90.5176 144.085 90.251 143.815 90.0693C143.552 89.8877 143.32 89.6826 143.121 89.4541C142.928 89.2197 142.781 88.9736 142.682 88.7158C142.588 88.4521 142.541 88.1709 142.541 87.8721C142.541 87.0986 142.822 86.4951 143.385 86.0615C143.947 85.6279 144.683 85.4111 145.591 85.4111C146.276 85.4111 147.141 85.6279 148.184 86.0615L147.709 87.6084C147.047 87.0811 146.382 86.8174 145.714 86.8174C145.315 86.8174 144.979 86.9111 144.703 87.0986C144.434 87.2861 144.299 87.5234 144.299 87.8105C144.299 88.4141 144.642 88.8711 145.327 89.1816L146.522 89.7266C147.255 90.0605 147.788 90.4414 148.122 90.8691C148.456 91.2969 148.623 91.833 148.623 92.4775C148.623 93.3213 148.327 93.9834 147.735 94.4639C147.144 94.9385 146.323 95.1758 145.274 95.1758C144.284 95.1758 143.353 94.9297 142.479 94.4375ZM150.987 86.9053H149.897V85.5869H150.987V83.6182L152.657 82.9766V85.5869H155.241V86.9053H152.657V91.5811C152.657 92.3721 152.789 92.9346 153.053 93.2686C153.322 93.6025 153.753 93.7695 154.345 93.7695C154.772 93.7695 155.215 93.6611 155.672 93.4443L155.918 94.9121C155.227 95.0879 154.468 95.1758 153.642 95.1758C152.897 95.1758 152.268 94.9004 151.752 94.3496C151.242 93.793 150.987 93.0928 150.987 92.249V86.9053ZM156.911 90.2715C156.911 88.8184 157.301 87.6465 158.08 86.7559C158.865 85.8594 159.896 85.4111 161.174 85.4111C162.521 85.4111 163.567 85.8418 164.312 86.7031C165.056 87.5586 165.428 88.748 165.428 90.2715C165.428 91.7891 165.047 92.9873 164.285 93.8662C163.523 94.7393 162.486 95.1758 161.174 95.1758C159.832 95.1758 158.786 94.7334 158.036 93.8486C157.286 92.9639 156.911 91.7715 156.911 90.2715ZM158.669 90.2715C158.669 92.6328 159.504 93.8135 161.174 93.8135C161.953 93.8135 162.562 93.4971 163.002 92.8643C163.447 92.2314 163.67 91.3672 163.67 90.2715C163.67 87.9395 162.838 86.7734 161.174 86.7734C160.412 86.7734 159.803 87.084 159.346 87.7051C158.895 88.3262 158.669 89.1816 158.669 90.2715ZM178.093 95V89.041C178.093 87.5586 177.451 86.8174 176.168 86.8174C175.764 86.8174 175.386 86.9434 175.034 87.1953C174.683 87.4414 174.442 87.7227 174.313 88.0391V95H172.644V88.3115C172.644 87.8486 172.468 87.4853 172.116 87.2217C171.77 86.9521 171.311 86.8174 170.736 86.8174C170.402 86.8174 170.045 86.9463 169.664 87.2041C169.289 87.4619 169.022 87.7461 168.864 88.0566V95H167.194V85.5869H168.284L168.838 86.6768C169.482 85.833 170.288 85.4111 171.255 85.4111C172.603 85.4111 173.546 85.8301 174.085 86.668C174.272 86.3105 174.621 86.0117 175.131 85.7715C175.641 85.5312 176.165 85.4111 176.704 85.4111C177.677 85.4111 178.43 85.7012 178.963 86.2812C179.496 86.8555 179.763 87.6641 179.763 88.707V95H178.093ZM190.063 90.4561H183.278C183.278 91.5576 183.58 92.4043 184.184 92.9961C184.717 93.5117 185.402 93.7695 186.24 93.7695C187.195 93.7695 187.992 93.4912 188.631 92.9346L189.334 94.1387C189.076 94.3965 188.681 94.6191 188.147 94.8066C187.479 95.0527 186.735 95.1758 185.915 95.1758C184.731 95.1758 183.727 94.7744 182.9 93.9717C181.98 93.0869 181.52 91.8975 181.52 90.4033C181.52 88.8506 181.992 87.6055 182.936 86.668C183.779 85.8301 184.778 85.4111 185.933 85.4111C187.274 85.4111 188.326 85.7891 189.088 86.5449C189.826 87.2715 190.195 88.2353 190.195 89.4365C190.195 89.8057 190.151 90.1455 190.063 90.4561ZM186.012 86.8174C185.268 86.8174 184.644 87.0576 184.14 87.5381C183.659 87.9951 183.387 88.5635 183.322 89.2432H188.534C188.534 88.5693 188.323 88.0068 187.901 87.5557C187.438 87.0635 186.809 86.8174 186.012 86.8174ZM197.077 87.1953C196.714 86.9434 196.348 86.8174 195.979 86.8174C195.387 86.8174 194.868 87.0898 194.423 87.6348C193.983 88.1797 193.764 88.8359 193.764 89.6035V95H192.094V85.5869H193.764V87.0898C194.373 85.9707 195.278 85.4111 196.479 85.4111C196.778 85.4111 197.209 85.4639 197.771 85.5693L197.077 87.1953ZM198.343 94.4375L198.932 92.8555C199.863 93.4648 200.613 93.7695 201.182 93.7695C202.213 93.7695 202.729 93.3359 202.729 92.4687C202.729 91.8477 202.23 91.3145 201.234 90.8691C200.467 90.5176 199.948 90.251 199.679 90.0693C199.415 89.8877 199.184 89.6826 198.984 89.4541C198.791 89.2197 198.645 88.9736 198.545 88.7158C198.451 88.4521 198.404 88.1709 198.404 87.8721C198.404 87.0986 198.686 86.4951 199.248 86.0615C199.811 85.6279 200.546 85.4111 201.454 85.4111C202.14 85.4111 203.004 85.6279 204.047 86.0615L203.572 87.6084C202.91 87.0811 202.245 86.8174 201.577 86.8174C201.179 86.8174 200.842 86.9111 200.566 87.0986C200.297 87.2861 200.162 87.5234 200.162 87.8105C200.162 88.4141 200.505 88.8711 201.19 89.1816L202.386 89.7266C203.118 90.0605 203.651 90.4414 203.985 90.8691C204.319 91.2969 204.486 91.833 204.486 92.4775C204.486 93.3213 204.19 93.9834 203.599 94.4639C203.007 94.9385 202.187 95.1758 201.138 95.1758C200.147 95.1758 199.216 94.9297 198.343 94.4375ZM208.178 92.5303C208.541 92.5303 208.852 92.6592 209.109 92.917C209.367 93.1748 209.496 93.4853 209.496 93.8486C209.496 94.2119 209.367 94.5254 209.109 94.7891C208.852 95.0469 208.541 95.1758 208.178 95.1758C207.814 95.1758 207.504 95.0469 207.246 94.7891C206.988 94.5254 206.859 94.2119 206.859 93.8486C206.859 93.4853 206.988 93.1748 207.246 92.917C207.504 92.6592 207.814 92.5303 208.178 92.5303ZM224.736 95L223.849 92.2842H219.059L218.109 95H216.141L221.37 81.9482H221.836L226.687 95H224.736ZM221.52 85.3232L219.524 90.9922H223.348L221.52 85.3232ZM228.041 92.3369V81.7285H229.711V92.0557C229.711 92.5596 229.854 92.958 230.142 93.251C230.435 93.5381 230.815 93.6816 231.284 93.6816V95.1758C229.122 95.1758 228.041 94.2295 228.041 92.3369ZM233.35 92.3369V81.7285H235.02V92.0557C235.02 92.5596 235.163 92.958 235.45 93.251C235.743 93.5381 236.124 93.6816 236.593 93.6816V95.1758C234.431 95.1758 233.35 94.2295 233.35 92.3369ZM6.50391 114.919C5.83594 115.757 4.81348 116.176 3.43652 116.176C2.69824 116.176 2.05664 115.909 1.51172 115.376C0.972656 114.837 0.703125 114.169 0.703125 113.372C0.703125 112.417 1.11914 111.611 1.95117 110.955C2.78906 110.293 3.85547 109.962 5.15039 109.962C5.50195 109.962 5.90039 110.038 6.3457 110.19C6.3457 108.667 5.66602 107.905 4.30664 107.905C3.26367 107.905 2.46094 108.187 1.89844 108.749L1.19531 107.352C1.51172 107.094 1.94824 106.874 2.50488 106.692C3.06738 106.505 3.60352 106.411 4.11328 106.411C5.47852 106.411 6.46875 106.722 7.08398 107.343C7.70508 107.964 8.01562 108.951 8.01562 110.305V113.68C8.01562 114.506 8.26172 115.057 8.75391 115.332V116.167C8.07422 116.167 7.56445 116.07 7.22461 115.877C6.89062 115.684 6.65039 115.364 6.50391 114.919ZM6.3457 111.377C5.81836 111.26 5.44922 111.201 5.23828 111.201C4.39453 111.201 3.70605 111.418 3.17285 111.852C2.63965 112.285 2.37305 112.798 2.37305 113.39C2.37305 114.368 2.9502 114.857 4.10449 114.857C4.94824 114.857 5.69531 114.456 6.3457 113.653V111.377ZM17.7451 107.352L16.9189 108.529C16.749 108.359 16.4473 108.198 16.0137 108.046C15.5859 107.894 15.1641 107.817 14.748 107.817C13.8398 107.817 13.1191 108.137 12.5859 108.775C12.0527 109.408 11.7861 110.278 11.7861 111.386C11.7861 112.487 12.0586 113.328 12.6035 113.908C13.1484 114.482 13.9043 114.77 14.8711 114.77C15.6211 114.77 16.377 114.479 17.1387 113.899L17.7979 115.306C16.9014 115.886 15.791 116.176 14.4668 116.176C13.1836 116.176 12.123 115.745 11.2852 114.884C10.4473 114.022 10.0283 112.856 10.0283 111.386C10.0283 109.886 10.4619 108.682 11.3291 107.773C12.2021 106.865 13.3945 106.411 14.9062 106.411C15.3926 106.411 15.9199 106.514 16.4883 106.719C17.0566 106.924 17.4756 107.135 17.7451 107.352ZM26.6572 107.352L25.8311 108.529C25.6611 108.359 25.3594 108.198 24.9258 108.046C24.498 107.894 24.0762 107.817 23.6602 107.817C22.752 107.817 22.0312 108.137 21.498 108.775C20.9648 109.408 20.6982 110.278 20.6982 111.386C20.6982 112.487 20.9707 113.328 21.5156 113.908C22.0605 114.482 22.8164 114.77 23.7832 114.77C24.5332 114.77 25.2891 114.479 26.0508 113.899L26.71 115.306C25.8135 115.886 24.7031 116.176 23.3789 116.176C22.0957 116.176 21.0352 115.745 20.1973 114.884C19.3594 114.022 18.9404 112.856 18.9404 111.386C18.9404 109.886 19.374 108.682 20.2412 107.773C21.1143 106.865 22.3066 106.411 23.8184 106.411C24.3047 106.411 24.832 106.514 25.4004 106.719C25.9687 106.924 26.3877 107.135 26.6572 107.352ZM27.8525 111.271C27.8525 109.818 28.2422 108.646 29.0215 107.756C29.8066 106.859 30.8379 106.411 32.1152 106.411C33.4629 106.411 34.5088 106.842 35.2529 107.703C35.9971 108.559 36.3691 109.748 36.3691 111.271C36.3691 112.789 35.9883 113.987 35.2266 114.866C34.4648 115.739 33.4277 116.176 32.1152 116.176C30.7734 116.176 29.7275 115.733 28.9775 114.849C28.2275 113.964 27.8525 112.771 27.8525 111.271ZM29.6103 111.271C29.6103 113.633 30.4453 114.813 32.1152 114.813C32.8945 114.813 33.5039 114.497 33.9434 113.864C34.3887 113.231 34.6113 112.367 34.6113 111.271C34.6113 108.939 33.7793 107.773 32.1152 107.773C31.3535 107.773 30.7441 108.084 30.2871 108.705C29.8359 109.326 29.6103 110.182 29.6103 111.271ZM39.7178 106.587V112.59C39.7178 114.043 40.3477 114.77 41.6074 114.77C42.1582 114.77 42.6621 114.611 43.1191 114.295C43.5762 113.979 43.8779 113.612 44.0244 113.196V106.587H45.6943V116H44.0244V114.699C43.8369 115.068 43.459 115.408 42.8906 115.719C42.3281 116.023 41.7773 116.176 41.2383 116.176C40.207 116.176 39.416 115.88 38.8652 115.288C38.3203 114.696 38.0478 113.855 38.0478 112.766V106.587H39.7178ZM53.7715 116V110.524C53.7715 109.522 53.6191 108.822 53.3144 108.424C53.0156 108.02 52.5117 107.817 51.8027 107.817C51.4219 107.817 51.0234 107.932 50.6074 108.16C50.1914 108.389 49.8721 108.67 49.6494 109.004V116H47.9795V106.587H49.1221L49.6494 107.8C50.2002 106.874 51.0996 106.411 52.3477 106.411C54.4102 106.411 55.4414 107.665 55.4414 110.173V116H53.7715ZM58.4209 107.905H57.3311V106.587H58.4209V104.618L60.0908 103.977V106.587H62.6748V107.905H60.0908V112.581C60.0908 113.372 60.2227 113.935 60.4863 114.269C60.7559 114.603 61.1865 114.77 61.7783 114.77C62.2061 114.77 62.6484 114.661 63.1055 114.444L63.3516 115.912C62.6602 116.088 61.9014 116.176 61.0752 116.176C60.3311 116.176 59.7012 115.9 59.1855 115.35C58.6758 114.793 58.4209 114.093 58.4209 113.249V107.905ZM64.3447 115.437L64.9336 113.855C65.8652 114.465 66.6152 114.77 67.1836 114.77C68.2148 114.77 68.7305 114.336 68.7305 113.469C68.7305 112.848 68.2324 112.314 67.2363 111.869C66.4687 111.518 65.9502 111.251 65.6807 111.069C65.417 110.888 65.1855 110.683 64.9863 110.454C64.793 110.22 64.6465 109.974 64.5469 109.716C64.4531 109.452 64.4062 109.171 64.4062 108.872C64.4062 108.099 64.6875 107.495 65.25 107.062C65.8125 106.628 66.5478 106.411 67.4561 106.411C68.1416 106.411 69.0059 106.628 70.0488 107.062L69.5742 108.608C68.9121 108.081 68.2471 107.817 67.5791 107.817C67.1807 107.817 66.8437 107.911 66.5684 108.099C66.2988 108.286 66.1641 108.523 66.1641 108.811C66.1641 109.414 66.5068 109.871 67.1924 110.182L68.3877 110.727C69.1201 111.061 69.6533 111.441 69.9873 111.869C70.3213 112.297 70.4883 112.833 70.4883 113.478C70.4883 114.321 70.1924 114.983 69.6006 115.464C69.0088 115.938 68.1885 116.176 67.1396 116.176C66.1494 116.176 65.2178 115.93 64.3447 115.437ZM83.0039 114.919C82.3359 115.757 81.3135 116.176 79.9365 116.176C79.1982 116.176 78.5566 115.909 78.0117 115.376C77.4727 114.837 77.2031 114.169 77.2031 113.372C77.2031 112.417 77.6191 111.611 78.4512 110.955C79.2891 110.293 80.3555 109.962 81.6504 109.962C82.0019 109.962 82.4004 110.038 82.8457 110.19C82.8457 108.667 82.166 107.905 80.8066 107.905C79.7637 107.905 78.9609 108.187 78.3984 108.749L77.6953 107.352C78.0117 107.094 78.4482 106.874 79.0049 106.692C79.5674 106.505 80.1035 106.411 80.6133 106.411C81.9785 106.411 82.9687 106.722 83.584 107.343C84.2051 107.964 84.5156 108.951 84.5156 110.305V113.68C84.5156 114.506 84.7617 115.057 85.2539 115.332V116.167C84.5742 116.167 84.0644 116.07 83.7246 115.877C83.3906 115.684 83.1504 115.364 83.0039 114.919ZM82.8457 111.377C82.3184 111.26 81.9492 111.201 81.7383 111.201C80.8945 111.201 80.206 111.418 79.6728 111.852C79.1396 112.285 78.873 112.798 78.873 113.39C78.873 114.368 79.4502 114.857 80.6045 114.857C81.4482 114.857 82.1953 114.456 82.8457 113.653V111.377ZM92.2588 108.195C91.8955 107.943 91.5293 107.817 91.1602 107.817C90.5684 107.817 90.0498 108.09 89.6045 108.635C89.165 109.18 88.9453 109.836 88.9453 110.604V116H87.2754V106.587H88.9453V108.09C89.5547 106.971 90.46 106.411 91.6611 106.411C91.96 106.411 92.3906 106.464 92.9531 106.569L92.2588 108.195ZM102.067 111.456H95.2822C95.2822 112.558 95.584 113.404 96.1875 113.996C96.7207 114.512 97.4062 114.77 98.2441 114.77C99.1992 114.77 99.9961 114.491 100.635 113.935L101.338 115.139C101.08 115.396 100.685 115.619 100.151 115.807C99.4834 116.053 98.7393 116.176 97.9189 116.176C96.7353 116.176 95.7305 115.774 94.9043 114.972C93.9844 114.087 93.5244 112.897 93.5244 111.403C93.5244 109.851 93.9961 108.605 94.9394 107.668C95.7832 106.83 96.7822 106.411 97.9365 106.411C99.2783 106.411 100.33 106.789 101.092 107.545C101.83 108.271 102.199 109.235 102.199 110.437C102.199 110.806 102.155 111.146 102.067 111.456ZM98.0156 107.817C97.2715 107.817 96.6475 108.058 96.1435 108.538C95.6631 108.995 95.3906 109.563 95.3262 110.243H100.538C100.538 109.569 100.327 109.007 99.9053 108.556C99.4424 108.063 98.8125 107.817 98.0156 107.817ZM112.79 116.176H112.351L108.316 106.561H110.145L112.632 113.152L115.172 106.561H116.921L112.79 116.176ZM126.149 111.456H119.364C119.364 112.558 119.666 113.404 120.27 113.996C120.803 114.512 121.488 114.77 122.326 114.77C123.281 114.77 124.078 114.491 124.717 113.935L125.42 115.139C125.162 115.396 124.767 115.619 124.233 115.807C123.565 116.053 122.821 116.176 122.001 116.176C120.817 116.176 119.812 115.774 118.986 114.972C118.066 114.087 117.606 112.897 117.606 111.403C117.606 109.851 118.078 108.605 119.021 107.668C119.865 106.83 120.864 106.411 122.019 106.411C123.36 106.411 124.412 106.789 125.174 107.545C125.912 108.271 126.281 109.235 126.281 110.437C126.281 110.806 126.237 111.146 126.149 111.456ZM122.098 107.817C121.354 107.817 120.729 108.058 120.226 108.538C119.745 108.995 119.473 109.563 119.408 110.243H124.62C124.62 109.569 124.409 109.007 123.987 108.556C123.524 108.063 122.895 107.817 122.098 107.817ZM133.163 108.195C132.8 107.943 132.434 107.817 132.064 107.817C131.473 107.817 130.954 108.09 130.509 108.635C130.069 109.18 129.85 109.836 129.85 110.604V116H128.18V106.587H129.85V108.09C130.459 106.971 131.364 106.411 132.565 106.411C132.864 106.411 133.295 106.464 133.857 106.569L133.163 108.195ZM136.767 103.027C137.054 103.027 137.297 103.13 137.496 103.335C137.701 103.534 137.804 103.774 137.804 104.056C137.804 104.343 137.701 104.589 137.496 104.794C137.297 104.993 137.054 105.093 136.767 105.093C136.485 105.093 136.242 104.993 136.037 104.794C135.838 104.589 135.738 104.343 135.738 104.056C135.738 103.769 135.838 103.525 136.037 103.326C136.236 103.127 136.479 103.027 136.767 103.027ZM135.853 116V107.993H134.561V106.587H137.522V116H135.853ZM145.266 104.223C144.926 104.105 144.609 104.047 144.316 104.047C143.807 104.047 143.385 104.24 143.051 104.627C142.723 105.014 142.559 105.503 142.559 106.095C142.559 106.253 142.573 106.417 142.603 106.587H144.519V107.993H142.603V116H140.933V107.993H139.562V106.587H140.933C140.933 105.386 141.229 104.442 141.82 103.757C142.412 103.071 143.194 102.729 144.167 102.729C144.653 102.729 145.175 102.816 145.731 102.992L145.266 104.223ZM148.562 103.027C148.849 103.027 149.092 103.13 149.291 103.335C149.496 103.534 149.599 103.774 149.599 104.056C149.599 104.343 149.496 104.589 149.291 104.794C149.092 104.993 148.849 105.093 148.562 105.093C148.28 105.093 148.037 104.993 147.832 104.794C147.633 104.589 147.533 104.343 147.533 104.056C147.533 103.769 147.633 103.525 147.832 103.326C148.031 103.127 148.274 103.027 148.562 103.027ZM147.647 116V107.993H146.355V106.587H149.317V116H147.647ZM159.899 111.456H153.114C153.114 112.558 153.416 113.404 154.02 113.996C154.553 114.512 155.238 114.77 156.076 114.77C157.031 114.77 157.828 114.491 158.467 113.935L159.17 115.139C158.912 115.396 158.517 115.619 157.983 115.807C157.315 116.053 156.571 116.176 155.751 116.176C154.567 116.176 153.562 115.774 152.736 114.972C151.816 114.087 151.356 112.897 151.356 111.403C151.356 109.851 151.828 108.605 152.771 107.668C153.615 106.83 154.614 106.411 155.769 106.411C157.11 106.411 158.162 106.789 158.924 107.545C159.662 108.271 160.031 109.235 160.031 110.437C160.031 110.806 159.987 111.146 159.899 111.456ZM155.848 107.817C155.104 107.817 154.479 108.058 153.976 108.538C153.495 108.995 153.223 109.563 153.158 110.243H158.37C158.37 109.569 158.159 109.007 157.737 108.556C157.274 108.063 156.645 107.817 155.848 107.817ZM167.766 115.991V115.297C167.186 115.877 166.342 116.167 165.234 116.167C164.057 116.167 163.102 115.745 162.369 114.901C161.637 114.058 161.27 112.933 161.27 111.526C161.27 110.114 161.692 108.91 162.536 107.914C163.38 106.912 164.385 106.411 165.551 106.411C166.523 106.411 167.262 106.64 167.766 107.097V102.729H169.436V115.991H167.766ZM167.766 108.767C167.344 108.134 166.767 107.817 166.034 107.817C165.138 107.817 164.411 108.151 163.854 108.819C163.304 109.487 163.028 110.337 163.028 111.368C163.028 113.636 164.06 114.77 166.122 114.77C166.386 114.77 166.702 114.687 167.071 114.523C167.44 114.354 167.672 114.175 167.766 113.987V108.767ZM176.651 115.437L177.24 113.855C178.172 114.465 178.922 114.77 179.49 114.77C180.521 114.77 181.037 114.336 181.037 113.469C181.037 112.848 180.539 112.314 179.543 111.869C178.775 111.518 178.257 111.251 177.987 111.069C177.724 110.888 177.492 110.683 177.293 110.454C177.1 110.22 176.953 109.974 176.854 109.716C176.76 109.452 176.713 109.171 176.713 108.872C176.713 108.099 176.994 107.495 177.557 107.062C178.119 106.628 178.854 106.411 179.763 106.411C180.448 106.411 181.312 106.628 182.355 107.062L181.881 108.608C181.219 108.081 180.554 107.817 179.886 107.817C179.487 107.817 179.15 107.911 178.875 108.099C178.605 108.286 178.471 108.523 178.471 108.811C178.471 109.414 178.813 109.871 179.499 110.182L180.694 110.727C181.427 111.061 181.96 111.441 182.294 111.869C182.628 112.297 182.795 112.833 182.795 113.478C182.795 114.321 182.499 114.983 181.907 115.464C181.315 115.938 180.495 116.176 179.446 116.176C178.456 116.176 177.524 115.93 176.651 115.437ZM183.946 111.271C183.946 109.818 184.336 108.646 185.115 107.756C185.9 106.859 186.932 106.411 188.209 106.411C189.557 106.411 190.603 106.842 191.347 107.703C192.091 108.559 192.463 109.748 192.463 111.271C192.463 112.789 192.082 113.987 191.32 114.866C190.559 115.739 189.521 116.176 188.209 116.176C186.867 116.176 185.821 115.733 185.071 114.849C184.321 113.964 183.946 112.771 183.946 111.271ZM185.704 111.271C185.704 113.633 186.539 114.813 188.209 114.813C188.988 114.813 189.598 114.497 190.037 113.864C190.482 113.231 190.705 112.367 190.705 111.271C190.705 108.939 189.873 107.773 188.209 107.773C187.447 107.773 186.838 108.084 186.381 108.705C185.93 109.326 185.704 110.182 185.704 111.271ZM199.793 113.337V102.729H201.463V113.056C201.463 113.56 201.606 113.958 201.894 114.251C202.187 114.538 202.567 114.682 203.036 114.682V116.176C200.874 116.176 199.793 115.229 199.793 113.337ZM204.354 111.271C204.354 109.818 204.744 108.646 205.523 107.756C206.309 106.859 207.34 106.411 208.617 106.411C209.965 106.411 211.011 106.842 211.755 107.703C212.499 108.559 212.871 109.748 212.871 111.271C212.871 112.789 212.49 113.987 211.729 114.866C210.967 115.739 209.93 116.176 208.617 116.176C207.275 116.176 206.229 115.733 205.479 114.849C204.729 113.964 204.354 112.771 204.354 111.271ZM206.112 111.271C206.112 113.633 206.947 114.813 208.617 114.813C209.396 114.813 210.006 114.497 210.445 113.864C210.891 113.231 211.113 112.367 211.113 111.271C211.113 108.939 210.281 107.773 208.617 107.773C207.855 107.773 207.246 108.084 206.789 108.705C206.338 109.326 206.112 110.182 206.112 111.271ZM214.022 111.271C214.022 109.818 214.412 108.646 215.191 107.756C215.977 106.859 217.008 106.411 218.285 106.411C219.633 106.411 220.679 106.842 221.423 107.703C222.167 108.559 222.539 109.748 222.539 111.271C222.539 112.789 222.158 113.987 221.396 114.866C220.635 115.739 219.598 116.176 218.285 116.176C216.943 116.176 215.897 115.733 215.147 114.849C214.397 113.964 214.022 112.771 214.022 111.271ZM215.78 111.271C215.78 113.633 216.615 114.813 218.285 114.813C219.064 114.813 219.674 114.497 220.113 113.864C220.559 113.231 220.781 112.367 220.781 111.271C220.781 108.939 219.949 107.773 218.285 107.773C217.523 107.773 216.914 108.084 216.457 108.705C216.006 109.326 215.78 110.182 215.78 111.271ZM230.388 116L227.435 111.289L225.976 112.792V116H224.306V102.729H225.976V110.964L229.579 106.587H231.53L228.516 110.164L232.198 116H230.388ZM243.914 104.223C243.574 104.105 243.258 104.047 242.965 104.047C242.455 104.047 242.033 104.24 241.699 104.627C241.371 105.014 241.207 105.503 241.207 106.095C241.207 106.253 241.222 106.417 241.251 106.587H243.167V107.993H241.251V116H239.581V107.993H238.21V106.587H239.581C239.581 105.386 239.877 104.442 240.469 103.757C241.061 103.071 241.843 102.729 242.815 102.729C243.302 102.729 243.823 102.816 244.38 102.992L243.914 104.223ZM244.872 111.271C244.872 109.818 245.262 108.646 246.041 107.756C246.826 106.859 247.857 106.411 249.135 106.411C250.482 106.411 251.528 106.842 252.272 107.703C253.017 108.559 253.389 109.748 253.389 111.271C253.389 112.789 253.008 113.987 252.246 114.866C251.484 115.739 250.447 116.176 249.135 116.176C247.793 116.176 246.747 115.733 245.997 114.849C245.247 113.964 244.872 112.771 244.872 111.271ZM246.63 111.271C246.63 113.633 247.465 114.813 249.135 114.813C249.914 114.813 250.523 114.497 250.963 113.864C251.408 113.231 251.631 112.367 251.631 111.271C251.631 108.939 250.799 107.773 249.135 107.773C248.373 107.773 247.764 108.084 247.307 108.705C246.855 109.326 246.63 110.182 246.63 111.271ZM260.27 108.195C259.907 107.943 259.541 107.817 259.172 107.817C258.58 107.817 258.062 108.09 257.616 108.635C257.177 109.18 256.957 109.836 256.957 110.604V116H255.287V106.587H256.957V108.09C257.566 106.971 258.472 106.411 259.673 106.411C259.972 106.411 260.402 106.464 260.965 106.569L260.27 108.195ZM272.9 114.919C272.232 115.757 271.21 116.176 269.833 116.176C269.095 116.176 268.453 115.909 267.908 115.376C267.369 114.837 267.1 114.169 267.1 113.372C267.1 112.417 267.516 111.611 268.348 110.955C269.186 110.293 270.252 109.962 271.547 109.962C271.898 109.962 272.297 110.038 272.742 110.19C272.742 108.667 272.062 107.905 270.703 107.905C269.66 107.905 268.857 108.187 268.295 108.749L267.592 107.352C267.908 107.094 268.345 106.874 268.901 106.692C269.464 106.505 270 106.411 270.51 106.411C271.875 106.411 272.865 106.722 273.48 107.343C274.102 107.964 274.412 108.951 274.412 110.305V113.68C274.412 114.506 274.658 115.057 275.15 115.332V116.167C274.471 116.167 273.961 116.07 273.621 115.877C273.287 115.684 273.047 115.364 272.9 114.919ZM272.742 111.377C272.215 111.26 271.846 111.201 271.635 111.201C270.791 111.201 270.103 111.418 269.569 111.852C269.036 112.285 268.77 112.798 268.77 113.39C268.77 114.368 269.347 114.857 270.501 114.857C271.345 114.857 272.092 114.456 272.742 113.653V111.377ZM282.832 116V110.524C282.832 109.522 282.68 108.822 282.375 108.424C282.076 108.02 281.572 107.817 280.863 107.817C280.482 107.817 280.084 107.932 279.668 108.16C279.252 108.389 278.933 108.67 278.71 109.004V116H277.04V106.587H278.183L278.71 107.8C279.261 106.874 280.16 106.411 281.408 106.411C283.471 106.411 284.502 107.665 284.502 110.173V116H282.832ZM6.50391 135.919C5.83594 136.757 4.81348 137.176 3.43652 137.176C2.69824 137.176 2.05664 136.909 1.51172 136.376C0.972656 135.837 0.703125 135.169 0.703125 134.372C0.703125 133.417 1.11914 132.611 1.95117 131.955C2.78906 131.293 3.85547 130.962 5.15039 130.962C5.50195 130.962 5.90039 131.038 6.3457 131.19C6.3457 129.667 5.66602 128.905 4.30664 128.905C3.26367 128.905 2.46094 129.187 1.89844 129.749L1.19531 128.352C1.51172 128.094 1.94824 127.874 2.50488 127.692C3.06738 127.505 3.60352 127.411 4.11328 127.411C5.47852 127.411 6.46875 127.722 7.08398 128.343C7.70508 128.964 8.01562 129.951 8.01562 131.305V134.68C8.01562 135.506 8.26172 136.057 8.75391 136.332V137.167C8.07422 137.167 7.56445 137.07 7.22461 136.877C6.89062 136.684 6.65039 136.364 6.50391 135.919ZM6.3457 132.377C5.81836 132.26 5.44922 132.201 5.23828 132.201C4.39453 132.201 3.70605 132.418 3.17285 132.852C2.63965 133.285 2.37305 133.798 2.37305 134.39C2.37305 135.368 2.9502 135.857 4.10449 135.857C4.94824 135.857 5.69531 135.456 6.3457 134.653V132.377ZM11.2412 128.905H10.1514V127.587H11.2412V125.618L12.9111 124.977V127.587H15.4951V128.905H12.9111V133.581C12.9111 134.372 13.043 134.935 13.3066 135.269C13.5762 135.603 14.0068 135.77 14.5986 135.77C15.0264 135.77 15.4687 135.661 15.9258 135.444L16.1719 136.912C15.4805 137.088 14.7217 137.176 13.8955 137.176C13.1514 137.176 12.5215 136.9 12.0059 136.35C11.4961 135.793 11.2412 135.093 11.2412 134.249V128.905ZM18.3779 128.905H17.2881V127.587H18.3779V125.618L20.0479 124.977V127.587H22.6318V128.905H20.0479V133.581C20.0479 134.372 20.1797 134.935 20.4434 135.269C20.7129 135.603 21.1436 135.77 21.7354 135.77C22.1631 135.77 22.6055 135.661 23.0625 135.444L23.3086 136.912C22.6172 137.088 21.8584 137.176 21.0322 137.176C20.2881 137.176 19.6582 136.9 19.1426 136.35C18.6328 135.793 18.3779 135.093 18.3779 134.249V128.905ZM30.0322 129.195C29.6689 128.943 29.3027 128.817 28.9336 128.817C28.3418 128.817 27.8232 129.09 27.3779 129.635C26.9385 130.18 26.7187 130.836 26.7187 131.604V137H25.0488V127.587H26.7187V129.09C27.3281 127.971 28.2334 127.411 29.4346 127.411C29.7334 127.411 30.1641 127.464 30.7266 127.569L30.0322 129.195ZM37.2305 135.919C36.5625 136.757 35.54 137.176 34.1631 137.176C33.4248 137.176 32.7832 136.909 32.2383 136.376C31.6992 135.837 31.4297 135.169 31.4297 134.372C31.4297 133.417 31.8457 132.611 32.6777 131.955C33.5156 131.293 34.582 130.962 35.877 130.962C36.2285 130.962 36.627 131.038 37.0723 131.19C37.0723 129.667 36.3926 128.905 35.0332 128.905C33.9902 128.905 33.1875 129.187 32.625 129.749L31.9219 128.352C32.2383 128.094 32.6748 127.874 33.2314 127.692C33.7939 127.505 34.3301 127.411 34.8398 127.411C36.2051 127.411 37.1953 127.722 37.8105 128.343C38.4316 128.964 38.7422 129.951 38.7422 131.305V134.68C38.7422 135.506 38.9883 136.057 39.4805 136.332V137.167C38.8008 137.167 38.291 137.07 37.9512 136.877C37.6172 136.684 37.377 136.364 37.2305 135.919ZM37.0723 132.377C36.5449 132.26 36.1758 132.201 35.9648 132.201C35.1211 132.201 34.4326 132.418 33.8994 132.852C33.3662 133.285 33.0996 133.798 33.0996 134.39C33.0996 135.368 33.6768 135.857 34.8311 135.857C35.6748 135.857 36.4219 135.456 37.0723 134.653V132.377ZM48.4717 128.352L47.6455 129.529C47.4756 129.359 47.1738 129.198 46.7402 129.046C46.3125 128.894 45.8906 128.817 45.4746 128.817C44.5664 128.817 43.8457 129.137 43.3125 129.775C42.7793 130.408 42.5127 131.278 42.5127 132.386C42.5127 133.487 42.7852 134.328 43.3301 134.908C43.875 135.482 44.6309 135.77 45.5977 135.77C46.3477 135.77 47.1035 135.479 47.8652 134.899L48.5244 136.306C47.6279 136.886 46.5176 137.176 45.1934 137.176C43.9102 137.176 42.8496 136.745 42.0117 135.884C41.1738 135.022 40.7549 133.856 40.7549 132.386C40.7549 130.886 41.1885 129.682 42.0557 128.773C42.9287 127.865 44.1211 127.411 45.6328 127.411C46.1191 127.411 46.6465 127.514 47.2148 127.719C47.7832 127.924 48.2021 128.135 48.4717 128.352ZM50.8799 128.905H49.79V127.587H50.8799V125.618L52.5498 124.977V127.587H55.1338V128.905H52.5498V133.581C52.5498 134.372 52.6816 134.935 52.9453 135.269C53.2148 135.603 53.6455 135.77 54.2373 135.77C54.665 135.77 55.1074 135.661 55.5644 135.444L55.8105 136.912C55.1191 137.088 54.3603 137.176 53.5342 137.176C52.79 137.176 52.1602 136.9 51.6445 136.35C51.1348 135.793 50.8799 135.093 50.8799 134.249V128.905ZM59.1416 124.027C59.4287 124.027 59.6719 124.13 59.8711 124.335C60.0762 124.534 60.1787 124.774 60.1787 125.056C60.1787 125.343 60.0762 125.589 59.8711 125.794C59.6719 125.993 59.4287 126.093 59.1416 126.093C58.8603 126.093 58.6172 125.993 58.4121 125.794C58.2129 125.589 58.1133 125.343 58.1133 125.056C58.1133 124.769 58.2129 124.525 58.4121 124.326C58.6113 124.127 58.8545 124.027 59.1416 124.027ZM58.2275 137V128.993H56.9355V127.587H59.8975V137H58.2275ZM65.9443 137.176H65.5049L61.4707 127.561H63.2988L65.7861 134.152L68.3262 127.561H70.0752L65.9443 137.176ZM79.3037 132.456H72.5186C72.5186 133.558 72.8203 134.404 73.4238 134.996C73.957 135.512 74.6426 135.77 75.4805 135.77C76.4355 135.77 77.2324 135.491 77.8711 134.935L78.5742 136.139C78.3164 136.396 77.9209 136.619 77.3877 136.807C76.7197 137.053 75.9756 137.176 75.1553 137.176C73.9717 137.176 72.9668 136.774 72.1406 135.972C71.2207 135.087 70.7607 133.897 70.7607 132.403C70.7607 130.851 71.2324 129.605 72.1758 128.668C73.0195 127.83 74.0186 127.411 75.1728 127.411C76.5146 127.411 77.5664 127.789 78.3281 128.545C79.0664 129.271 79.4355 130.235 79.4355 131.437C79.4355 131.806 79.3916 132.146 79.3037 132.456ZM75.2519 128.817C74.5078 128.817 73.8838 129.058 73.3799 129.538C72.8994 129.995 72.6269 130.563 72.5625 131.243H77.7744C77.7744 130.569 77.5635 130.007 77.1416 129.556C76.6787 129.063 76.0488 128.817 75.2519 128.817ZM86.0185 136.437L86.6074 134.855C87.5391 135.465 88.2891 135.77 88.8574 135.77C89.8887 135.77 90.4043 135.336 90.4043 134.469C90.4043 133.848 89.9062 133.314 88.9102 132.869C88.1426 132.518 87.624 132.251 87.3545 132.069C87.0908 131.888 86.8594 131.683 86.6602 131.454C86.4668 131.22 86.3203 130.974 86.2207 130.716C86.1269 130.452 86.0801 130.171 86.0801 129.872C86.0801 129.099 86.3613 128.495 86.9238 128.062C87.4863 127.628 88.2217 127.411 89.1299 127.411C89.8154 127.411 90.6797 127.628 91.7227 128.062L91.248 129.608C90.5859 129.081 89.9209 128.817 89.2529 128.817C88.8545 128.817 88.5176 128.911 88.2422 129.099C87.9727 129.286 87.8379 129.523 87.8379 129.811C87.8379 130.414 88.1807 130.871 88.8662 131.182L90.0615 131.727C90.7939 132.061 91.3271 132.441 91.6611 132.869C91.9951 133.297 92.1621 133.833 92.1621 134.478C92.1621 135.321 91.8662 135.983 91.2744 136.464C90.6826 136.938 89.8623 137.176 88.8135 137.176C87.8232 137.176 86.8916 136.93 86.0185 136.437ZM94.5264 128.905H93.4365V127.587H94.5264V125.618L96.1963 124.977V127.587H98.7803V128.905H96.1963V133.581C96.1963 134.372 96.3281 134.935 96.5918 135.269C96.8613 135.603 97.292 135.77 97.8838 135.77C98.3115 135.77 98.7539 135.661 99.2109 135.444L99.457 136.912C98.7656 137.088 98.0068 137.176 97.1807 137.176C96.4365 137.176 95.8066 136.9 95.291 136.35C94.7812 135.793 94.5264 135.093 94.5264 134.249V128.905ZM106.181 129.195C105.817 128.943 105.451 128.817 105.082 128.817C104.49 128.817 103.972 129.09 103.526 129.635C103.087 130.18 102.867 130.836 102.867 131.604V137H101.197V127.587H102.867V129.09C103.477 127.971 104.382 127.411 105.583 127.411C105.882 127.411 106.312 127.464 106.875 127.569L106.181 129.195ZM113.379 135.919C112.711 136.757 111.688 137.176 110.312 137.176C109.573 137.176 108.932 136.909 108.387 136.376C107.848 135.837 107.578 135.169 107.578 134.372C107.578 133.417 107.994 132.611 108.826 131.955C109.664 131.293 110.73 130.962 112.025 130.962C112.377 130.962 112.775 131.038 113.221 131.19C113.221 129.667 112.541 128.905 111.182 128.905C110.139 128.905 109.336 129.187 108.773 129.749L108.07 128.352C108.387 128.094 108.823 127.874 109.38 127.692C109.942 127.505 110.479 127.411 110.988 127.411C112.354 127.411 113.344 127.722 113.959 128.343C114.58 128.964 114.891 129.951 114.891 131.305V134.68C114.891 135.506 115.137 136.057 115.629 136.332V137.167C114.949 137.167 114.439 137.07 114.1 136.877C113.766 136.684 113.525 136.364 113.379 135.919ZM113.221 132.377C112.693 132.26 112.324 132.201 112.113 132.201C111.27 132.201 110.581 132.418 110.048 132.852C109.515 133.285 109.248 133.798 109.248 134.39C109.248 135.368 109.825 135.857 110.979 135.857C111.823 135.857 112.57 135.456 113.221 134.653V132.377ZM123.311 137V131.524C123.311 130.522 123.158 129.822 122.854 129.424C122.555 129.02 122.051 128.817 121.342 128.817C120.961 128.817 120.562 128.932 120.146 129.16C119.73 129.389 119.411 129.67 119.188 130.004V137H117.519V127.587H118.661L119.188 128.8C119.739 127.874 120.639 127.411 121.887 127.411C123.949 127.411 124.98 128.665 124.98 131.173V137H123.311ZM127.02 139.575L127.925 138.239C128.897 138.89 129.794 139.215 130.614 139.215C131.37 139.215 131.965 139.083 132.398 138.819C132.838 138.562 133.058 138.239 133.058 137.853C133.058 137.091 132.507 136.71 131.405 136.71C131.218 136.71 130.878 136.757 130.386 136.851C129.894 136.944 129.51 136.991 129.234 136.991C127.898 136.991 127.23 136.487 127.23 135.479C127.23 135.169 127.386 134.888 127.696 134.636C128.013 134.384 128.402 134.202 128.865 134.091C127.541 133.47 126.879 132.392 126.879 130.856C126.879 129.872 127.222 129.052 127.907 128.396C128.593 127.739 129.439 127.411 130.447 127.411C131.373 127.411 132.097 127.602 132.618 127.982L133.453 126.98L134.543 128.009L133.541 128.765C133.969 129.321 134.183 130.048 134.183 130.944C134.183 131.894 133.887 132.69 133.295 133.335C132.703 133.979 131.927 134.349 130.966 134.442L129.586 134.583C129.422 134.601 129.202 134.665 128.927 134.776C128.651 134.882 128.514 135.022 128.514 135.198C128.514 135.438 128.801 135.559 129.375 135.559C129.627 135.559 130.02 135.515 130.553 135.427C131.086 135.333 131.481 135.286 131.739 135.286C132.665 135.286 133.386 135.509 133.901 135.954C134.423 136.394 134.684 137.006 134.684 137.791C134.684 138.658 134.294 139.358 133.515 139.892C132.741 140.425 131.76 140.691 130.57 140.691C129.961 140.691 129.319 140.583 128.646 140.366C127.972 140.149 127.43 139.886 127.02 139.575ZM130.562 128.756C129.981 128.756 129.507 128.961 129.138 129.371C128.774 129.781 128.593 130.279 128.593 130.865C128.593 131.521 128.769 132.066 129.12 132.5C129.478 132.928 129.958 133.142 130.562 133.142C131.153 133.142 131.616 132.934 131.95 132.518C132.284 132.096 132.451 131.545 132.451 130.865C132.451 130.279 132.27 129.781 131.906 129.371C131.549 128.961 131.101 128.756 130.562 128.756ZM144.325 132.456H137.54C137.54 133.558 137.842 134.404 138.445 134.996C138.979 135.512 139.664 135.77 140.502 135.77C141.457 135.77 142.254 135.491 142.893 134.935L143.596 136.139C143.338 136.396 142.942 136.619 142.409 136.807C141.741 137.053 140.997 137.176 140.177 137.176C138.993 137.176 137.988 136.774 137.162 135.972C136.242 135.087 135.782 133.897 135.782 132.403C135.782 130.851 136.254 129.605 137.197 128.668C138.041 127.83 139.04 127.411 140.194 127.411C141.536 127.411 142.588 127.789 143.35 128.545C144.088 129.271 144.457 130.235 144.457 131.437C144.457 131.806 144.413 132.146 144.325 132.456ZM140.273 128.817C139.529 128.817 138.905 129.058 138.401 129.538C137.921 129.995 137.648 130.563 137.584 131.243H142.796C142.796 130.569 142.585 130.007 142.163 129.556C141.7 129.063 141.07 128.817 140.273 128.817ZM151.339 129.195C150.976 128.943 150.609 128.817 150.24 128.817C149.648 128.817 149.13 129.09 148.685 129.635C148.245 130.18 148.025 130.836 148.025 131.604V137H146.355V127.587H148.025V129.09C148.635 127.971 149.54 127.411 150.741 127.411C151.04 127.411 151.471 127.464 152.033 127.569L151.339 129.195ZM165.753 128.352L164.927 129.529C164.757 129.359 164.455 129.198 164.021 129.046C163.594 128.894 163.172 128.817 162.756 128.817C161.848 128.817 161.127 129.137 160.594 129.775C160.061 130.408 159.794 131.278 159.794 132.386C159.794 133.487 160.066 134.328 160.611 134.908C161.156 135.482 161.912 135.77 162.879 135.77C163.629 135.77 164.385 135.479 165.146 134.899L165.806 136.306C164.909 136.886 163.799 137.176 162.475 137.176C161.191 137.176 160.131 136.745 159.293 135.884C158.455 135.022 158.036 133.856 158.036 132.386C158.036 130.886 158.47 129.682 159.337 128.773C160.21 127.865 161.402 127.411 162.914 127.411C163.4 127.411 163.928 127.514 164.496 127.719C165.064 127.924 165.483 128.135 165.753 128.352ZM166.948 132.271C166.948 130.818 167.338 129.646 168.117 128.756C168.902 127.859 169.934 127.411 171.211 127.411C172.559 127.411 173.604 127.842 174.349 128.703C175.093 129.559 175.465 130.748 175.465 132.271C175.465 133.789 175.084 134.987 174.322 135.866C173.561 136.739 172.523 137.176 171.211 137.176C169.869 137.176 168.823 136.733 168.073 135.849C167.323 134.964 166.948 133.771 166.948 132.271ZM168.706 132.271C168.706 134.633 169.541 135.813 171.211 135.813C171.99 135.813 172.6 135.497 173.039 134.864C173.484 134.231 173.707 133.367 173.707 132.271C173.707 129.939 172.875 128.773 171.211 128.773C170.449 128.773 169.84 129.084 169.383 129.705C168.932 130.326 168.706 131.182 168.706 132.271ZM183.023 137V131.524C183.023 130.522 182.871 129.822 182.566 129.424C182.268 129.02 181.764 128.817 181.055 128.817C180.674 128.817 180.275 128.932 179.859 129.16C179.443 129.389 179.124 129.67 178.901 130.004V137H177.231V127.587H178.374L178.901 128.8C179.452 127.874 180.352 127.411 181.6 127.411C183.662 127.411 184.693 128.665 184.693 131.173V137H183.023ZM192.164 125.223C191.824 125.105 191.508 125.047 191.215 125.047C190.705 125.047 190.283 125.24 189.949 125.627C189.621 126.014 189.457 126.503 189.457 127.095C189.457 127.253 189.472 127.417 189.501 127.587H191.417V128.993H189.501V137H187.831V128.993H186.46V127.587H187.831C187.831 126.386 188.127 125.442 188.719 124.757C189.311 124.071 190.093 123.729 191.065 123.729C191.552 123.729 192.073 123.816 192.63 123.992L192.164 125.223ZM195.46 124.027C195.747 124.027 195.99 124.13 196.189 124.335C196.395 124.534 196.497 124.774 196.497 125.056C196.497 125.343 196.395 125.589 196.189 125.794C195.99 125.993 195.747 126.093 195.46 126.093C195.179 126.093 194.936 125.993 194.73 125.794C194.531 125.589 194.432 125.343 194.432 125.056C194.432 124.769 194.531 124.525 194.73 124.326C194.93 124.127 195.173 124.027 195.46 124.027ZM194.546 137V128.993H193.254V127.587H196.216V137H194.546ZM204.838 136.991V136.297C204.258 136.877 203.414 137.167 202.307 137.167C201.129 137.167 200.174 136.745 199.441 135.901C198.709 135.058 198.343 133.933 198.343 132.526C198.343 131.114 198.765 129.91 199.608 128.914C200.452 127.912 201.457 127.411 202.623 127.411C203.596 127.411 204.334 127.64 204.838 128.097V123.729H206.508V136.991H204.838ZM204.838 129.767C204.416 129.134 203.839 128.817 203.106 128.817C202.21 128.817 201.483 129.151 200.927 129.819C200.376 130.487 200.101 131.337 200.101 132.368C200.101 134.636 201.132 135.77 203.194 135.77C203.458 135.77 203.774 135.687 204.144 135.523C204.513 135.354 204.744 135.175 204.838 134.987V129.767ZM216.835 132.456H210.05C210.05 133.558 210.352 134.404 210.955 134.996C211.488 135.512 212.174 135.77 213.012 135.77C213.967 135.77 214.764 135.491 215.402 134.935L216.105 136.139C215.848 136.396 215.452 136.619 214.919 136.807C214.251 137.053 213.507 137.176 212.687 137.176C211.503 137.176 210.498 136.774 209.672 135.972C208.752 135.087 208.292 133.897 208.292 132.403C208.292 130.851 208.764 129.605 209.707 128.668C210.551 127.83 211.55 127.411 212.704 127.411C214.046 127.411 215.098 127.789 215.859 128.545C216.598 129.271 216.967 130.235 216.967 131.437C216.967 131.806 216.923 132.146 216.835 132.456ZM212.783 128.817C212.039 128.817 211.415 129.058 210.911 129.538C210.431 129.995 210.158 130.563 210.094 131.243H215.306C215.306 130.569 215.095 130.007 214.673 129.556C214.21 129.063 213.58 128.817 212.783 128.817ZM224.525 137V131.524C224.525 130.522 224.373 129.822 224.068 129.424C223.77 129.02 223.266 128.817 222.557 128.817C222.176 128.817 221.777 128.932 221.361 129.16C220.945 129.389 220.626 129.67 220.403 130.004V137H218.733V127.587H219.876L220.403 128.8C220.954 127.874 221.854 127.411 223.102 127.411C225.164 127.411 226.195 128.665 226.195 131.173V137H224.525ZM229.175 128.905H228.085V127.587H229.175V125.618L230.845 124.977V127.587H233.429V128.905H230.845V133.581C230.845 134.372 230.977 134.935 231.24 135.269C231.51 135.603 231.94 135.77 232.532 135.77C232.96 135.77 233.402 135.661 233.859 135.444L234.105 136.912C233.414 137.088 232.655 137.176 231.829 137.176C231.085 137.176 230.455 136.9 229.939 136.35C229.43 135.793 229.175 135.093 229.175 134.249V128.905ZM235.846 134.337V123.729H237.516V134.056C237.516 134.56 237.659 134.958 237.946 135.251C238.239 135.538 238.62 135.682 239.089 135.682V137.176C236.927 137.176 235.846 136.229 235.846 134.337ZM244.617 138.6C244.4 139.197 243.943 139.695 243.246 140.094C242.555 140.492 241.781 140.691 240.926 140.691V139.197C241.623 139.197 242.221 139.033 242.719 138.705C243.217 138.383 243.466 137.987 243.466 137.519C243.466 137.003 243.375 136.496 243.193 135.998C243.012 135.494 242.777 134.873 242.49 134.135L239.941 127.587H241.646L244.415 134.864L246.902 127.587H248.607L244.617 138.6ZM252.343 133.643H251.719C251.268 130.695 251.042 128.647 251.042 127.499V123.896H253.028V127.49C253.028 128.609 252.8 130.66 252.343 133.643ZM252.088 134.53C252.451 134.53 252.762 134.659 253.02 134.917C253.277 135.175 253.406 135.485 253.406 135.849C253.406 136.212 253.277 136.525 253.02 136.789C252.762 137.047 252.451 137.176 252.088 137.176C251.725 137.176 251.414 137.047 251.156 136.789C250.898 136.525 250.77 136.212 250.77 135.849C250.77 135.485 250.898 135.175 251.156 134.917C251.414 134.659 251.725 134.53 252.088 134.53Z" fill="#303030"/>
<path d="M36.9375 18.2695C36.9375 15.8242 37.6055 13.7578 38.9414 12.0703C40.2852 10.375 42.0781 9.52734 44.3203 9.52734C46.7891 9.52734 48.6758 10.293 49.9805 11.8242C51.2852 13.3555 51.9375 15.5039 51.9375 18.2695C51.9375 21.0352 51.2539 23.2305 49.8867 24.8555C48.5273 26.4805 46.5937 27.293 44.0859 27.293C41.7812 27.293 40.0117 26.4883 38.7773 24.8789C37.5508 23.2695 36.9375 21.0664 36.9375 18.2695ZM40.1016 18.2695C40.1016 20.2773 40.4414 21.832 41.1211 22.9336C41.8008 24.0352 42.7891 24.5859 44.0859 24.5859C45.6094 24.5859 46.7695 24.0469 47.5664 22.9687C48.3711 21.8906 48.7734 20.3242 48.7734 18.2695C48.7734 14.2461 47.2891 12.2344 44.3203 12.2344C42.9609 12.2344 41.918 12.7812 41.1914 13.875C40.4648 14.9609 40.1016 16.4258 40.1016 18.2695ZM62.5312 27V19.7461C62.5312 18.6758 62.3242 17.8945 61.9102 17.4023C61.5039 16.9102 60.8359 16.6641 59.9062 16.6641C59.4766 16.6641 59.0156 16.7852 58.5234 17.0273C58.0391 17.2695 57.6602 17.5703 57.3867 17.9297V27H54.457V14.4492H56.5664L57.1055 15.6211C57.9023 14.6836 59.0781 14.2148 60.6328 14.2148C62.125 14.2148 63.3008 14.6641 64.1602 15.5625C65.0273 16.4531 65.4609 17.6992 65.4609 19.3008V27H62.5312ZM69.1406 9.77344L72.0703 9.07031V23.1797C72.0703 24.7266 72.5312 25.6484 73.4531 25.9453C73 26.8047 72.2266 27.2344 71.1328 27.2344C69.8047 27.2344 69.1406 26.3125 69.1406 24.4687V9.77344ZM81.2695 29.0156C80.957 29.8516 80.2852 30.543 79.2539 31.0898C78.2305 31.6445 77.0352 31.9219 75.668 31.9219V29.332C77.9258 29.332 79.0547 28.7656 79.0547 27.6328C79.0547 26.8828 78.7422 25.7344 78.1172 24.1875L74.1914 14.4492H77.2266L80.6484 23.1211L83.7305 14.4492H86.7656L81.2695 29.0156ZM100.98 27.2344H99.9258L94.2539 14.4492H97.4648L100.465 22.1133L103.687 14.4492H106.793L100.98 27.2344ZM119.637 21.6211H110.672C110.727 22.6211 111.07 23.3984 111.703 23.9531C112.336 24.5078 113.187 24.7852 114.258 24.7852C115.594 24.7852 116.609 24.4375 117.305 23.7422L118.441 25.9805C117.41 26.8164 115.871 27.2344 113.824 27.2344C111.91 27.2344 110.395 26.6758 109.277 25.5586C108.168 24.4336 107.613 22.8672 107.613 20.8594C107.613 18.8828 108.223 17.2812 109.441 16.0547C110.668 14.8281 112.137 14.2148 113.848 14.2148C115.668 14.2148 117.129 14.7578 118.23 15.8437C119.332 16.9297 119.883 18.3125 119.883 19.9922C119.883 20.3516 119.801 20.8945 119.637 21.6211ZM110.777 19.418H116.941C116.738 17.582 115.723 16.6641 113.895 16.6641C112.223 16.6641 111.184 17.582 110.777 19.418ZM129.492 17.1797C128.969 16.8359 128.395 16.6641 127.77 16.6641C127.09 16.6641 126.484 16.9727 125.953 17.5898C125.43 18.207 125.168 18.9609 125.168 19.8516V27H122.238V14.4492H125.168V15.5977C125.988 14.6758 127.078 14.2148 128.437 14.2148C129.437 14.2148 130.203 14.3672 130.734 14.6719L129.492 17.1797ZM134.801 9.58594C135.27 9.58594 135.668 9.75391 135.996 10.0898C136.332 10.418 136.5 10.8164 136.5 11.2852C136.5 11.7539 136.332 12.1562 135.996 12.4922C135.668 12.8203 135.27 12.9844 134.801 12.9844C134.332 12.9844 133.93 12.8203 133.594 12.4922C133.266 12.1562 133.102 11.7539 133.102 11.2852C133.102 10.8164 133.266 10.418 133.594 10.0898C133.93 9.75391 134.332 9.58594 134.801 9.58594ZM133.289 27V16.8516H131.684V14.4492H136.254V27H133.289ZM146.672 11.9883C146.031 11.7773 145.539 11.6719 145.195 11.6719C144.641 11.6719 144.168 11.9102 143.777 12.3867C143.395 12.8633 143.203 13.4492 143.203 14.1445C143.203 14.2461 143.207 14.3477 143.215 14.4492H145.816V16.8633H143.262V27H140.332V16.8633H138.504V14.4492H140.344C140.406 12.9102 140.859 11.668 141.703 10.7227C142.555 9.77734 143.652 9.30469 144.996 9.30469C145.691 9.30469 146.539 9.45703 147.539 9.76172L146.672 11.9883ZM150.855 9.58594C151.324 9.58594 151.723 9.75391 152.051 10.0898C152.387 10.418 152.555 10.8164 152.555 11.2852C152.555 11.7539 152.387 12.1562 152.051 12.4922C151.723 12.8203 151.324 12.9844 150.855 12.9844C150.387 12.9844 149.984 12.8203 149.648 12.4922C149.32 12.1562 149.156 11.7539 149.156 11.2852C149.156 10.8164 149.32 10.418 149.648 10.0898C149.984 9.75391 150.387 9.58594 150.855 9.58594ZM149.344 27V16.8516H147.738V14.4492H152.309V27H149.344ZM166.934 21.6211H157.969C158.023 22.6211 158.367 23.3984 159 23.9531C159.633 24.5078 160.484 24.7852 161.555 24.7852C162.891 24.7852 163.906 24.4375 164.602 23.7422L165.738 25.9805C164.707 26.8164 163.168 27.2344 161.121 27.2344C159.207 27.2344 157.691 26.6758 156.574 25.5586C155.465 24.4336 154.91 22.8672 154.91 20.8594C154.91 18.8828 155.52 17.2812 156.738 16.0547C157.965 14.8281 159.434 14.2148 161.145 14.2148C162.965 14.2148 164.426 14.7578 165.527 15.8437C166.629 16.9297 167.18 18.3125 167.18 19.9922C167.18 20.3516 167.098 20.8945 166.934 21.6211ZM158.074 19.418H164.238C164.035 17.582 163.02 16.6641 161.191 16.6641C159.52 16.6641 158.48 17.582 158.074 19.418ZM177.609 27V26.2383C177.367 26.5039 176.957 26.7383 176.379 26.9414C175.801 27.1367 175.203 27.2344 174.586 27.2344C172.836 27.2344 171.457 26.6797 170.449 25.5703C169.449 24.4609 168.949 22.9141 168.949 20.9297C168.949 18.9453 169.523 17.332 170.672 16.0898C171.828 14.8398 173.273 14.2148 175.008 14.2148C175.961 14.2148 176.828 14.4102 177.609 14.8008V9.77344L180.539 9.07031V27H177.609ZM177.609 17.4492C176.984 16.9492 176.332 16.6992 175.652 16.6992C174.48 16.6992 173.578 17.0586 172.945 17.7773C172.312 18.4883 171.996 19.5117 171.996 20.8477C171.996 23.457 173.254 24.7617 175.77 24.7617C176.051 24.7617 176.395 24.6797 176.801 24.5156C177.215 24.3437 177.484 24.1719 177.609 24V17.4492ZM198.809 27.0117V25.957C198.395 26.3086 197.824 26.6094 197.098 26.8594C196.371 27.1094 195.703 27.2344 195.094 27.2344C192.18 27.2344 190.723 25.6875 190.723 22.5937V14.4492H193.652V22.3711C193.652 23.9805 194.375 24.7852 195.82 24.7852C196.484 24.7852 197.102 24.6133 197.672 24.2695C198.242 23.9258 198.621 23.5273 198.809 23.0742V14.4492H201.738V27.0117H198.809ZM204.129 26.1914L205.172 23.8594C206.047 24.5547 207.035 24.9023 208.137 24.9023C209.277 24.9023 209.848 24.4961 209.848 23.6836C209.848 23.207 209.676 22.8164 209.332 22.5117C208.988 22.207 208.32 21.8477 207.328 21.4336C205.164 20.5352 204.082 19.2773 204.082 17.6602C204.082 16.5742 204.496 15.7305 205.324 15.1289C206.152 14.5195 207.211 14.2148 208.5 14.2148C209.805 14.2148 211.031 14.5078 212.18 15.0937L211.336 17.3672C210.695 16.8203 209.805 16.5469 208.664 16.5469C207.641 16.5469 207.129 16.9531 207.129 17.7656C207.129 18.0859 207.297 18.375 207.633 18.6328C207.969 18.8906 208.687 19.2383 209.789 19.6758C210.891 20.1055 211.684 20.6289 212.168 21.2461C212.652 21.8633 212.895 22.6094 212.895 23.4844C212.895 24.6484 212.461 25.5664 211.594 26.2383C210.734 26.9023 209.562 27.2344 208.078 27.2344C207.242 27.2344 206.57 27.1641 206.062 27.0234C205.562 26.8906 204.918 26.6133 204.129 26.1914ZM226.441 21.6211H217.477C217.531 22.6211 217.875 23.3984 218.508 23.9531C219.141 24.5078 219.992 24.7852 221.062 24.7852C222.398 24.7852 223.414 24.4375 224.109 23.7422L225.246 25.9805C224.215 26.8164 222.676 27.2344 220.629 27.2344C218.715 27.2344 217.199 26.6758 216.082 25.5586C214.973 24.4336 214.418 22.8672 214.418 20.8594C214.418 18.8828 215.027 17.2812 216.246 16.0547C217.473 14.8281 218.941 14.2148 220.652 14.2148C222.473 14.2148 223.934 14.7578 225.035 15.8437C226.137 16.9297 226.687 18.3125 226.687 19.9922C226.687 20.3516 226.605 20.8945 226.441 21.6211ZM217.582 19.418H223.746C223.543 17.582 222.527 16.6641 220.699 16.6641C219.027 16.6641 217.988 17.582 217.582 19.418ZM236.297 17.1797C235.773 16.8359 235.199 16.6641 234.574 16.6641C233.895 16.6641 233.289 16.9727 232.758 17.5898C232.234 18.207 231.973 18.9609 231.973 19.8516V27H229.043V14.4492H231.973V15.5977C232.793 14.6758 233.883 14.2148 235.242 14.2148C236.242 14.2148 237.008 14.3672 237.539 14.6719L236.297 17.1797ZM238.535 26.1914L239.578 23.8594C240.453 24.5547 241.441 24.9023 242.543 24.9023C243.684 24.9023 244.254 24.4961 244.254 23.6836C244.254 23.207 244.082 22.8164 243.738 22.5117C243.395 22.207 242.727 21.8477 241.734 21.4336C239.57 20.5352 238.488 19.2773 238.488 17.6602C238.488 16.5742 238.902 15.7305 239.73 15.1289C240.559 14.5195 241.617 14.2148 242.906 14.2148C244.211 14.2148 245.437 14.5078 246.586 15.0937L245.742 17.3672C245.102 16.8203 244.211 16.5469 243.07 16.5469C242.047 16.5469 241.535 16.9531 241.535 17.7656C241.535 18.0859 241.703 18.375 242.039 18.6328C242.375 18.8906 243.094 19.2383 244.195 19.6758C245.297 20.1055 246.09 20.6289 246.574 21.2461C247.059 21.8633 247.301 22.6094 247.301 23.4844C247.301 24.6484 246.867 25.5664 246 26.2383C245.141 26.9023 243.969 27.2344 242.484 27.2344C241.648 27.2344 240.977 27.1641 240.469 27.0234C239.969 26.8906 239.324 26.6133 238.535 26.1914Z" fill="#303030"/>
<path d="M13 0.5C18.2469 0.5 22.5 4.75314 22.5 10V19.5H19.5V10C19.5 6.41091 16.5902 3.5 13 3.5C9.4098 3.5 6.5 6.41091 6.5 10V19.5H3.5V10C3.5 4.75314 7.75314 0.5 13 0.5Z" fill="#AAB8C2" stroke="black"/>
<path d="M4 13.5H22C23.9329 13.5 25.5 15.0671 25.5 17V29C25.5 30.9329 23.9329 32.5 22 32.5H4C2.06714 32.5 0.5 30.9329 0.5 29V17C0.5 15.0671 2.06714 13.5 4 13.5Z" fill="#FFAC33" stroke="black"/>
</svg>
